<?xml version="1.0" encoding="utf-8"?>
<!-- Generator: Adobe Illustrator 22.0.1, SVG Export Plug-In . SVG Version: 6.00 Build 0)  -->
<svg version="1.1" id="Layer_1" xmlns="http://www.w3.org/2000/svg" xmlns:xlink="http://www.w3.org/1999/xlink" x="0px" y="0px"
	 viewBox="0 0 500 500" style="enable-background:new 0 0 500 500;" xml:space="preserve">
<style type="text/css">
	.st0{fill:none;}
	.st1{fill:#D0A14B;}
	.st2{font-family:'Kiona-Regular';}
	.st3{font-size:84px;}
	.st4{font-size:36px;}
	.st5{display:none;fill:#FEFEFE;}
	.st6{display:none;fill:#D0A14B;}
	.st7{display:none;fill:#D2A453;}
	.st8{display:none;fill:#FFFFFF;}
</style>
<rect y="367.6" class="st0" width="500" height="194.2"/>
<text transform="matrix(1 0 0 1 47.8989 422.1504)"><tspan x="0" y="0" class="st1 st2 st3">MAESTRO</tspan><tspan x="80.9" y="43.2" class="st1 st2 st4">EVENT PLAZA</tspan></text>
<g>
	<g>
		<path class="st5" d="M249.9,405.8c-74.2,0-148.4,0-222.6,0c-1.3,0-1.6-0.3-1.6-1.6c0-133.1,0-266.1,0-399.2c0-1.3,0.3-1.6,1.6-1.6
			c148.4,0,296.8,0,445.3,0c1.3,0,1.6,0.3,1.6,1.6c0,133.1,0,266.1,0,399.2c0,1.3-0.3,1.6-1.6,1.6
			C398.3,405.8,324.1,405.8,249.9,405.8z M417.9,343c1.5,0,3.1,0.2,4.6,0c4.2-0.8,8.4-1.4,12.6-2.5c3.1-0.9,2.4-0.3,2.5-3.3
			c0.1-1.1-0.4-1.3-1.4-1.3c-3.3-0.1-6.6-0.2-9.8-0.6c-7.4-0.8-14.4-2.6-21-6.1c-7.9-4.1-14.1-10-19.3-17.1
			c-4.4-6-8.1-12.5-11.2-19.2c-1.9-4-3.6-8.1-5-12.2c-2-5.8-3.7-11.7-5.2-17.7c-1.5-5.9-2.4-11.8-3.6-17.8c-0.8-3.8-1.5-7.6-2-11.5
			c-0.7-4.5-1.6-9-2.4-13.5c-0.8-4.7-1.6-9.5-2.5-14.2c-1.1-5.9-2.1-11.8-3.2-17.7c-1.6-8.8-3.1-17.5-4.7-26.3
			c-1.2-6.5-2.3-13-3.5-19.5c-0.8-4.7-1.7-9.4-2.5-14.1c-1.6-9.1-3.2-18.2-4.8-27.3c-1.1-6.3-2.3-12.7-3.4-19
			c-0.4-2.5-0.9-5.1-1.3-7.7c-0.1-1-0.5-1.5-1.6-1.6c-1.3-0.1-2.3,0.2-3,1.5c-2.9,5.2-5.9,10.4-9,15.5c-0.7,1.2-0.9,2.3-0.7,3.5
			c1.1,6.5,2.3,12.9,3.4,19.3c1.3,7.9,2.9,15.7,4.3,23.6c1.5,8.6,3,17.3,4.5,26c1.3,7.2,2.5,14.4,3.8,21.6
			c1.4,7.7,2.7,15.4,4.1,23.1c0.9,5.1,1.8,10.2,2.8,15.3c1.3,6.6,2.4,13.2,3.6,19.8c1.4,8.1,2.8,16.2,4.7,24.2
			c2.4,10.1,5.7,19.9,10,29.3c3.6,7.9,7.9,15.4,13.4,22.2c5.9,7.3,13,13.2,21.1,17.8C400.2,340.2,408.7,342.8,417.9,343z M96.1,51
			c-6.7-0.5-13.4,0.1-19.8,2.2c-0.8,0.3-2.3,0.4-2.2,1.1c0.2,0.9,1.5,0.4,2.4,0.4c5.2,0.1,10.3-0.3,15.5,0.4
			c8.2,1.2,15.9,3.8,23.3,7.5c9.1,4.5,17.3,10.5,24.5,17.6c3.7,3.6,7.2,7.4,10.5,11.4c5.3,6.4,10.1,13,14.2,20.1
			c4.3,7.4,8.2,15,12.2,22.6c3.8,7.1,7.6,14.3,11.4,21.5c6,11.3,12.1,22.7,18.2,34c4.3,8.1,8.7,16.3,13,24.5c1.6,3,3.1,5.9,4.7,8.9
			c0.3,0.6,0.7,2,1.7,0.4c2.8-4.9,5.6-9.7,8.4-14.6c0.5-0.8,0.4-1.4,0-2.2c-2.5-4.5-4.9-9.1-7.3-13.6c-4.2-7.9-8.4-15.8-12.6-23.7
			c-6.4-12-12.9-24-19.4-36.1c-4-7.4-7.7-14.9-11.8-22.2c-5.6-10.2-12.6-19.4-20.3-28c-9.9-11-21.2-20.2-34.8-26.1
			c-6.5-2.8-13.2-4.7-20.2-5.7C103.7,50.7,99.9,51.2,96.1,51z M137.6,155.5c-0.1,0-0.2,0-0.3,0.1c-0.4,2.9-1,5.8-1.2,8.7
			c-0.5,6-1.3,11.9-2.2,17.8c-0.7,5.2-1,10.4-1.8,15.5c-0.7,4.9-1.1,9.8-1.8,14.6c-0.5,3.5-0.9,7-1.3,10.6
			c-0.4,3.6-0.8,7.1-1.3,10.7c-0.3,2.2-0.4,4.5-0.7,6.7c-0.5,4.5-1.4,9-1.9,13.5c-0.6,6.1-1.4,12.1-2.3,18.1
			c-1.1,7.1,4.2,14,11,14.1c6.9,0.1,13.8,0,20.6,0c1.5,0,1.7-0.7,1.7-1.9c0-1.2-0.1-2-1.6-1.9c-2.3,0.1-4.5,0.2-6.7-0.6
			c-4.6-1.7-8.9-5.5-8.1-11.3c0.3-1.9,0.4-3.8,0.7-5.7c0.5-4.2,1-8.4,1.5-12.6c0.5-4.4,1.1-8.8,1.6-13.3c0.4-3.4,0.9-6.7,1.2-10.1
			c0.4-4.1,1.2-8.1,1.5-12.2c0.1-2.2,0.4-4.4,0.7-6.5c0.5-3.7,1-7.5,1.5-11.2c0.6-4.3,0.9-8.6,1.6-12.9c0.4-3,0.9-6-1.1-8.9
			c-2.4-3.7-4.2-7.8-6.2-11.7C141,162,139.3,158.7,137.6,155.5z M281.2,165.7c-0.3,0.2-0.5,0.3-0.5,0.4
			c-5.4,9.3-10.7,18.6-16.1,27.9c-6.8,11.9-13.7,23.8-20.5,35.7c-4.9,8.5-10,17-14.8,25.6c-3,5.3-6.1,10.5-8.9,15.9
			c-1.5,2.9-1.8,5.2,0.1,8c2.4,3.8,4.3,7.9,6.3,11.8c0.8,1.4,2.1,0.9,3.2,0.9c0.9,0,1-0.7,1-1.5c0.2-7.8,2.8-15,6-21.9
			c3.6-7.8,8.3-15,12.5-22.4c5.6-9.9,11.4-19.7,17.1-29.6c5.5-9.5,11-19,16.5-28.6c0.9-1.5,1.5-2.9,1-4.8c-0.6-2.4-0.8-5-1.2-7.5
			C282.4,172.4,281.8,169.1,281.2,165.7z M142,318.7c-0.1,0.1-0.2,0.1-0.3,0.2c0,8,0,16,0,24c0,0.6-0.4,1.6,0.9,1.5
			c1.3-0.1,0.8-1,0.8-1.6c0-5.6,0-11.1,0-16.7c0-0.5,0-1.1,0-2c0.5,0.5,0.6,0.7,0.8,1c3.3,4.7,6.7,9.3,9.9,14.1c0.7,1,1.1,1,1.8,0
			c1.3-2,2.7-3.9,4.1-5.9c2.1-2.9,4.1-5.9,6.2-8.8c0.1,0,0.2,0.1,0.3,0.1c0,0.5,0,1.1,0,1.6c0,5.5,0,11,0,16.5
			c0,0.6-0.5,1.7,0.9,1.7c1.3,0,0.8-1,0.8-1.6c0-7.6,0-15.2,0-22.9c0-0.4,0.2-0.9-0.3-1.3c-0.4,0.5-0.7,1-1.1,1.5
			c-3.7,5.3-7.4,10.5-11,15.8c-0.6,0.9-1,1.1-1.6,0c-0.8-1.3-1.8-2.5-2.6-3.8C148.5,327.7,145.3,323.2,142,318.7z M313.3,331.4
			c0,7.4,5.8,13.3,13.1,13.3c7.3,0,13.1-6,13.1-13.3c0-7.3-5.9-13.3-13.2-13.3C319.2,318.2,313.4,324,313.3,331.4z M296.9,333.2
			c1.1-0.2,2-0.3,2.9-0.4c3-0.5,5.6-2.9,6.1-5.7c0.9-4.3-2.7-8.4-7.7-8.6c-2.9-0.1-5.8,0-8.7-0.1c-1,0-1.2,0.4-1.2,1.3
			c0,1.2,0,2.5,0,3.7c0,6.5,0,13,0,19.4c0,1.3,0.6,1.9,1.5,1.4c0.7-0.4,0.4-1,0.4-1.5c0-7,0-14,0-21c0-1.2,0.3-1.6,1.5-1.6
			c1.9,0.1,3.9,0,5.8,0c1.8,0,3.4,0.4,4.8,1.6c2.4,1.9,2.6,4.9,0.6,7.2c-1.2,1.4-2.8,2-4.5,2.1c-1.7,0.1-3.4,0-5.5,0
			c3.6,4.3,6.7,8.2,9.9,12.1c1.2,1.4,1.2,1.4,3.2,1C302.9,340.5,300,336.9,296.9,333.2z M208.1,331.4c0,3.8,0.1,7.6,0,11.4
			c0,1.3,0.4,1.6,1.6,1.6c4.5-0.1,9.1,0,13.6,0c0.7,0,1.7,0.4,1.6-1c-0.1-1.4-1.1-0.9-1.7-0.9c-4,0-8,0-11.9,0c-1,0-1.4-0.3-1.4-1.3
			c0.1-2.5,0.1-5,0-7.5c0-1,0.3-1.3,1.3-1.3c3,0,6,0,9,0c0.7,0,1.4,0.1,1.4-1c0-1.1-0.7-1-1.4-1c-3,0-6,0-9,0c-1,0-1.3-0.3-1.3-1.3
			c0.1-2.4,0.1-4.9,0-7.3c0-1.2,0.3-1.6,1.5-1.6c4,0.1,8.1,0,12.1,0c0.6,0,1.4,0.2,1.4-0.9c0-1.2-0.8-1-1.5-1c-4.7,0-9.3,0-14,0
			c-1.3,0-1.5,0.5-1.5,1.6C208.2,323.8,208.1,327.6,208.1,331.4z M242.6,318.1c-3.2,0-5.7,0.7-7.8,2.6c-2.7,2.4-2.9,6.1-0.4,8.8
			c1.5,1.6,3.5,2.3,5.6,2.7c1.9,0.3,3.9,0.4,5.7,1c1.9,0.7,3.4,1.9,3.7,4c0.3,2.1-1,3.4-2.6,4.4c-2.8,1.8-7.3,1.6-10-0.3
			c-0.9-0.6-1.6-1.4-2-2.5c-0.2-0.5-0.1-1.2-1.1-0.8c-0.7,0.3-1,0.7-0.7,1.5c0.4,1.1,1.1,2,2,2.7c3.3,2.7,8.4,3.3,12.3,1.2
			c2.6-1.3,4.2-3.3,4-6.4c-0.3-2.9-2.2-4.6-4.8-5.7c-1.6-0.6-3.3-0.8-5-1c-2.2-0.3-4.4-0.6-5.9-2.5c-1.4-1.7-1.4-3.5-0.1-5.1
			c3.6-4.5,12.8-3.1,13.8,1.5c0.2,0.9,0.7,0.7,1.2,0.4c0.9-0.5,0.6-1.1,0.3-1.7C249,319.4,245.8,318.4,242.6,318.1z M188.8,318.4
			c-1.1,1.5-11.8,24.5-12.1,25.9c1.3,0.4,2-0.1,2.4-1.3c0.5-1.3,1.2-2.6,1.8-3.9c0.4-0.9,0.9-1.3,1.9-1.3c3.7,0.1,7.5,0.1,11.2,0
			c0.9,0,1.4,0.3,1.8,1.2c0.6,1.6,1.4,3.1,2,4.7c0.4,1,1.2,0.9,1.8,0.6c0.7-0.3,0-0.9-0.1-1.3c-2.2-5-4.4-10.1-6.6-15.1
			C191.6,324.8,190.3,321.6,188.8,318.4z M270,332.4c0-3.5,0-6.9,0-10.4c0-1.2,0.3-1.7,1.6-1.7c2.5,0.1,5,0,7.5,0c0.7,0,1.2,0,1.2-1
			c0-1-0.6-0.9-1.2-0.9c-6.7,0-13.3,0-20,0c-0.6,0-1.3-0.2-1.3,0.9c0,1,0.6,1,1.4,1c2.4,0,4.8,0.1,7.2,0c1.5-0.1,1.8,0.5,1.8,1.8
			c-0.1,6.9,0,13.9,0,20.8c0,0.6-0.3,1.4,0.9,1.5c1.2,0.1,1-0.8,1-1.5C270,339.4,270,335.9,270,332.4z M217.5,365.5
			c-2.5-3-4.7-5.5-7.2-8.5c0,3.5,0,6.3,0,9.2c0,0.4-0.3,1.3,0.4,1.2c0.7,0,0.4-0.8,0.4-1.3c0-2.1,0-4.2,0-6.3c0.1,0,0.2-0.1,0.4-0.1
			c2.2,2.5,4.3,5.1,6.8,8c0-3.5,0-6.5,0-9.5c0-0.4,0.2-1.1-0.4-1.1c-0.8,0-0.5,0.8-0.5,1.2C217.5,360.6,217.5,362.8,217.5,365.5z
			 M180.9,367.6c0.9,0,1.8,0,2.7,0c0.3,0,0.8,0.1,0.8-0.4c0-0.4-0.5-0.4-0.8-0.4c-1.3,0-2.6,0-3.9,0c-0.9,0-1.2-0.3-1.2-1.2
			c-0.2-2.8-0.2-2.8,2.5-2.8c0.1,0,0.2,0,0.3,0c0.6-0.1,1.6,0.3,1.6-0.3c0-0.9-1.1-0.4-1.7-0.4c-3-0.1-3-0.1-2.8-2.9
			c0.1-0.9,0.5-1.1,1.3-1.1c1.2,0,2.5,0,3.7,0c0.4,0,0.9,0.1,0.9-0.4c0-0.5-0.6-0.4-1-0.4c-1.5,0-3.1,0-4.6,0
			c-0.9,0-1.2,0.3-1.2,1.2c0,2,0,4,0,6C177.6,367.6,177.6,367.6,180.9,367.6z M205.6,362.5c-1-0.5-1-0.5-2.1-0.5
			c-2.7,0-2.7,0-2.6-2.7c0-1,0.4-1.3,1.3-1.3c1.3,0.1,2.6,0,3.9,0c0.3,0,0.8,0,0.7-0.5c0-0.4-0.4-0.4-0.7-0.4c-1.7,0-3.4,0-5.1,0
			c-0.8,0-0.9,0.4-0.9,1.1c0,2.8,0,5.6,0,8.3c0,0.7,0.1,1.1,0.9,1.1c1.7,0,3.4,0,5.1,0c0.3,0,0.8,0.1,0.7-0.5c0-0.3-0.4-0.4-0.7-0.4
			c-1.3,0-2.6,0-3.9,0c-1.9,0.1-1.2-1.3-1.3-2.3c-0.1-1-0.1-1.8,1.3-1.7C203.3,362.8,204.5,363,205.6,362.5z M287.3,357
			c-1.7,3.7-3.4,7-4.5,10.7c0.8-2.2,2.3-2.7,4.4-2.8c2.4-0.2,3.3,1.2,4.2,2.9c0.1-0.1,0.3-0.3,0.4-0.4
			C290.4,364.1,289,360.8,287.3,357z M265.1,357c-1.7,3.7-3.2,7-4.8,10.4c0.1,0.1,0.3,0.3,0.4,0.4c0.9-1.9,1.9-2.9,4.2-2.9
			c2.3,0,3.3,1.1,4.3,2.9c0.1-0.1,0.2-0.3,0.4-0.4C268.2,364,266.8,360.7,265.1,357z M240.1,362.5c0,1.4,0,2.7,0,4.1
			c0,0.4-0.2,0.9,0.4,1c0.6,0,0.4-0.5,0.5-0.9c0.1-1.1-0.3-2.4,0.2-3.1c0.6-0.8,2-0.2,3.1-0.3c2.5-0.3,3.8-2.7,2.4-4.6
			c-0.9-1.2-4.3-2.2-6-1.3c-1.3,0.6-0.4,2-0.6,3.1C240,361,240.1,361.7,240.1,362.5z M192.2,367.8c1.7-3.8,3.2-7.1,4.7-10.5
			c-0.2-0.1-0.3-0.2-0.5-0.2c-1.8,2.5-2.4,5.6-4.2,8.4c-1.7-2.8-2.4-5.9-4.2-8.4c-0.2,0.1-0.3,0.2-0.5,0.2
			C189.1,360.7,190.6,364.1,192.2,367.8z M273.2,367.4c2.2,0,4.3,0,6.4,0c-1.6-0.8-3.4-0.2-5.2-0.7c1.5-2.9,2.9-5.7,4.4-8.4
			c0.5-0.9,0.4-1.2-0.7-1.2c-1.5,0-2.9,0-4.4,0c-0.4,0-0.9-0.1-0.9,0.5c0,0.5,0.5,0.3,0.8,0.4c1.3,0,2.7,0,4.3,0
			C276.3,361.3,274.8,364.3,273.2,367.4z M225.8,362.7c0,1.2,0,2.4,0,3.6c0,0.4-0.3,1.2,0.5,1.2c0.6,0,0.4-0.7,0.4-1.1
			c0-1.7,0-3.4,0-5.1c0-3,0-3,3-3.2c0.1,0,0.1,0,0.2,0c0.3,0,0.8,0.1,0.8-0.4c0-0.6-0.5-0.5-0.9-0.5c-2.4,0-4.8,0-7.2,0
			c-0.3,0-0.8-0.1-0.8,0.4c0,0.5,0.4,0.4,0.7,0.5c1.1,0.2,2.5-0.6,3.1,0.5c0.5,0.9,0.1,2.2,0.2,3.4
			C225.8,362.1,225.8,362.4,225.8,362.7z M257.2,367.6c0-0.2,0-0.5,0-0.7c-1.5,0-2.9-0.1-4.4,0c-1,0-1.4-0.3-1.4-1.3
			c0.1-2.3,0-4.6,0-7c0-0.5,0.2-1.1-0.8-1.5c0,3.4,0,6.6,0,9.8c0,0.4,0.1,0.7,0.6,0.7C253.2,367.6,255.2,367.6,257.2,367.6z"/>
		<path class="st1" d="M417.9,343c-9.2-0.1-17.7-2.7-25.6-7.3c-8.1-4.6-15.2-10.5-21.1-17.8c-5.5-6.8-9.8-14.3-13.4-22.2
			c-4.3-9.5-7.6-19.3-10-29.3c-1.9-8-3.3-16.1-4.7-24.2c-1.1-6.6-2.2-13.2-3.6-19.8c-1-5.1-1.9-10.2-2.8-15.3
			c-1.4-7.7-2.7-15.4-4.1-23.1c-1.3-7.2-2.5-14.4-3.8-21.6c-1.5-8.7-3-17.3-4.5-26c-1.4-7.9-3-15.7-4.3-23.6
			c-1.1-6.5-2.3-12.9-3.4-19.3c-0.2-1.3,0-2.4,0.7-3.5c3.1-5.1,6.1-10.2,9-15.5c0.8-1.4,1.7-1.6,3-1.5c1,0.1,1.4,0.6,1.6,1.6
			c0.3,2.6,0.8,5.1,1.3,7.7c1.1,6.3,2.3,12.7,3.4,19c1.6,9.1,3.2,18.2,4.8,27.3c0.8,4.7,1.7,9.4,2.5,14.1c1.2,6.5,2.3,13,3.5,19.5
			c1.6,8.8,3,17.6,4.7,26.3c1.1,5.9,2.1,11.8,3.2,17.7c0.9,4.7,1.7,9.4,2.5,14.2c0.8,4.5,1.7,9,2.4,13.5c0.6,3.9,1.3,7.7,2,11.5
			c1.2,5.9,2.1,11.9,3.6,17.8c1.5,6,3.2,11.9,5.2,17.7c1.4,4.1,3.1,8.2,5,12.2c3.2,6.7,6.8,13.2,11.2,19.2
			c5.2,7.1,11.5,12.9,19.3,17.1c6.6,3.5,13.6,5.4,21,6.1c3.3,0.3,6.5,0.5,9.8,0.6c1,0,1.4,0.2,1.4,1.3c-0.2,3,0.6,2.5-2.5,3.3
			c-4.1,1.1-8.4,1.7-12.6,2.5C421,343.2,419.4,343,417.9,343z"/>
		<path class="st1" d="M96.1,51c3.8,0.2,7.6-0.3,11.4,0.2c7,0.9,13.7,2.8,20.2,5.7c13.7,6,25,15.1,34.8,26.1
			c7.8,8.7,14.7,17.9,20.3,28c4.1,7.3,7.8,14.8,11.8,22.2c6.4,12,12.9,24,19.4,36.1c4.2,7.9,8.4,15.8,12.6,23.7
			c2.4,4.6,4.8,9.1,7.3,13.6c0.4,0.8,0.5,1.3,0,2.2c-2.8,4.8-5.6,9.7-8.4,14.6c-0.9,1.6-1.3,0.2-1.7-0.4c-1.6-2.9-3.2-5.9-4.7-8.9
			c-4.3-8.2-8.7-16.3-13-24.5c-6.1-11.3-12.1-22.7-18.2-34c-3.8-7.2-7.6-14.3-11.4-21.5c-4-7.5-7.9-15.2-12.2-22.6
			c-4.1-7.1-9-13.8-14.2-20.1c-3.3-4-6.8-7.8-10.5-11.4c-7.2-7.1-15.3-13.1-24.5-17.6c-7.4-3.7-15.1-6.3-23.3-7.5
			c-5.1-0.7-10.3-0.3-15.5-0.4c-0.8,0-2.2,0.5-2.4-0.4c-0.1-0.7,1.4-0.9,2.2-1.1C82.7,51.1,89.4,50.5,96.1,51z"/>
		<path class="st1" d="M137.6,155.5c1.7,3.2,3.4,6.5,5.1,9.7c2.1,3.9,3.8,8,6.2,11.7c2,3,1.5,5.9,1.1,8.9c-0.6,4.3-0.9,8.6-1.6,12.9
			c-0.5,3.7-1,7.5-1.5,11.2c-0.3,2.2-0.6,4.4-0.7,6.5c-0.3,4.1-1.1,8.1-1.5,12.2c-0.3,3.4-0.8,6.7-1.2,10.1
			c-0.5,4.4-1.1,8.8-1.6,13.3c-0.5,4.2-1,8.4-1.5,12.6c-0.2,1.9-0.4,3.8-0.7,5.7c-0.8,5.8,3.5,9.7,8.1,11.3c2.2,0.8,4.5,0.7,6.7,0.6
			c1.5-0.1,1.6,0.8,1.6,1.9c0,1.2-0.2,1.9-1.7,1.9c-6.9-0.1-13.8,0.1-20.6,0c-6.8-0.1-12.1-7.1-11-14.1c0.9-6,1.7-12,2.3-18.1
			c0.4-4.5,1.4-9,1.9-13.5c0.2-2.2,0.4-4.5,0.7-6.7c0.4-3.6,0.8-7.1,1.3-10.7c0.4-3.5,0.8-7.1,1.3-10.6c0.7-4.9,1.1-9.8,1.8-14.6
			c0.8-5.2,1.1-10.4,1.8-15.5c0.8-5.9,1.7-11.8,2.2-17.8c0.2-2.9,0.8-5.8,1.2-8.7C137.4,155.5,137.5,155.5,137.6,155.5z"/>
		<path class="st1" d="M281.2,165.7c0.6,3.5,1.2,6.7,1.7,10c0.4,2.5,0.6,5,1.2,7.5c0.5,1.9-0.1,3.3-1,4.8c-5.5,9.5-11,19-16.5,28.6
			c-5.7,9.9-11.5,19.7-17.1,29.6c-4.2,7.4-8.9,14.6-12.5,22.4c-3.3,6.9-5.8,14.1-6,21.9c0,0.7-0.1,1.5-1,1.5c-1.1,0-2.4,0.5-3.2-0.9
			c-2.1-4-3.9-8.1-6.3-11.8c-1.8-2.9-1.6-5.2-0.1-8c2.8-5.4,5.9-10.6,8.9-15.9c4.9-8.6,9.9-17.1,14.8-25.6
			c6.9-11.9,13.7-23.8,20.5-35.7c5.3-9.3,10.7-18.6,16.1-27.9C280.7,166,280.8,165.9,281.2,165.7z"/>
		<path class="st6" d="M142,318.7c3.2,4.5,6.4,9,9.6,13.6c0.9,1.3,1.8,2.5,2.6,3.8c0.6,1,1,0.9,1.6,0c3.6-5.3,7.3-10.5,11-15.8
			c0.4-0.5,0.7-1,1.1-1.5c0.6,0.4,0.3,0.9,0.3,1.3c0,7.6,0,15.2,0,22.9c0,0.6,0.5,1.6-0.8,1.6c-1.4,0-0.9-1.1-0.9-1.7
			c0-5.5,0-11,0-16.5c0-0.5,0-1.1,0-1.6c-0.1,0-0.2-0.1-0.3-0.1c-2.1,2.9-4.1,5.9-6.2,8.8c-1.4,2-2.8,3.9-4.1,5.9
			c-0.7,1-1.1,1-1.8,0c-3.3-4.7-6.6-9.4-9.9-14.1c-0.2-0.2-0.3-0.4-0.8-1c0,0.9,0,1.4,0,2c0,5.6,0,11.1,0,16.7
			c0,0.6,0.5,1.6-0.8,1.6c-1.3,0.1-0.9-0.9-0.9-1.5c0-8,0-16,0-24C141.8,318.8,141.9,318.7,142,318.7z"/>
		<path class="st7" d="M313.3,331.4c0-7.4,5.8-13.3,13.1-13.3c7.3,0,13.2,5.9,13.2,13.3c0,7.3-5.9,13.3-13.1,13.3
			C319.2,344.7,313.3,338.8,313.3,331.4z M337.7,331.5c0-6.3-4.9-11.3-11.1-11.4c-6.3,0-11.4,5-11.4,11.3c0,6.2,5,11.3,11.2,11.4
			C332.7,342.8,337.7,337.9,337.7,331.5z"/>
		<path class="st7" d="M296.9,333.2c3.1,3.7,6,7.3,9,10.9c-2.1,0.5-2.1,0.5-3.2-1c-3.2-3.9-6.3-7.7-9.9-12.1c2.1,0,3.8,0.1,5.5,0
			c1.8-0.1,3.3-0.7,4.5-2.1c2-2.2,1.8-5.3-0.6-7.2c-1.4-1.1-3-1.6-4.8-1.6c-1.9,0-3.9,0.1-5.8,0c-1.2-0.1-1.5,0.4-1.5,1.6
			c0,7,0,14,0,21c0,0.5,0.3,1.2-0.4,1.5c-0.9,0.5-1.5-0.1-1.5-1.4c0-6.5,0-13,0-19.4c0-1.2,0-2.5,0-3.7c0-0.9,0.2-1.3,1.2-1.3
			c2.9,0.1,5.8-0.1,8.7,0.1c5,0.2,8.6,4.3,7.7,8.6c-0.6,2.8-3.1,5.2-6.1,5.7C298.9,332.9,298,333,296.9,333.2z"/>
		<path class="st7" d="M208.1,331.4c0-3.8,0-7.6,0-11.4c0-1.1,0.2-1.6,1.5-1.6c4.7,0.1,9.3,0,14,0c0.7,0,1.5-0.2,1.5,1
			c0,1.1-0.8,0.9-1.4,0.9c-4,0-8.1,0.1-12.1,0c-1.2,0-1.6,0.4-1.5,1.6c0.1,2.4,0.1,4.9,0,7.3c0,1,0.3,1.3,1.3,1.3c3,0,6,0,9,0
			c0.7,0,1.4-0.1,1.4,1c0,1.1-0.7,1-1.4,1c-3,0-6,0-9,0c-1,0-1.3,0.3-1.3,1.3c0.1,2.5,0.1,5,0,7.5c0,1.1,0.3,1.4,1.4,1.3
			c4,0,8,0,11.9,0c0.7,0,1.7-0.5,1.7,0.9c0.1,1.4-1,1-1.6,1c-4.5,0-9.1,0-13.6,0c-1.3,0-1.7-0.3-1.6-1.6
			C208.2,339,208.1,335.2,208.1,331.4z"/>
		<path class="st7" d="M242.6,318.1c3.2,0.3,6.4,1.3,8.2,4.8c0.3,0.6,0.6,1.3-0.3,1.7c-0.6,0.3-1,0.5-1.2-0.4
			c-1-4.7-10.3-6-13.8-1.5c-1.3,1.6-1.2,3.4,0.1,5.1c1.5,1.9,3.7,2.3,5.9,2.5c1.7,0.2,3.4,0.4,5,1c2.6,1,4.5,2.8,4.8,5.7
			c0.3,3-1.4,5-4,6.4c-3.9,2.1-9.1,1.6-12.3-1.2c-0.9-0.8-1.5-1.7-2-2.7c-0.3-0.7,0-1.1,0.7-1.5c0.9-0.5,0.9,0.3,1.1,0.8
			c0.4,1.1,1.1,1.8,2,2.5c2.7,1.9,7.2,2.1,10,0.3c1.6-1,2.9-2.3,2.6-4.4c-0.3-2.2-1.7-3.4-3.7-4c-1.8-0.6-3.8-0.7-5.7-1
			c-2.1-0.4-4.1-1.1-5.6-2.7c-2.5-2.6-2.4-6.3,0.4-8.8C236.9,318.8,239.4,318.1,242.6,318.1z"/>
		<path class="st7" d="M188.8,318.4c1.4,3.2,2.8,6.4,4.2,9.6c2.2,5,4.4,10.1,6.6,15.1c0.2,0.4,0.8,1,0.1,1.3
			c-0.6,0.3-1.4,0.4-1.8-0.6c-0.6-1.6-1.4-3.1-2-4.7c-0.3-0.9-0.9-1.2-1.8-1.2c-3.7,0-7.5,0.1-11.2,0c-1,0-1.5,0.4-1.9,1.3
			c-0.5,1.3-1.2,2.6-1.8,3.9c-0.5,1.2-1.2,1.8-2.4,1.3C177.1,342.9,187.7,319.9,188.8,318.4z M188.6,322.6c-2,4.4-3.9,8.4-5.8,12.5
			c-0.4,0.8,0,1,0.7,1c3.3,0,6.6,0,9.9,0c0.8,0,1-0.4,0.7-1.1C192.4,331,190.6,327,188.6,322.6z"/>
		<path class="st6" d="M270,332.4c0,3.5,0,7,0,10.6c0,0.7,0.2,1.5-1,1.5c-1.1,0-0.9-0.8-0.9-1.5c0-6.9,0-13.9,0-20.8
			c0-1.4-0.3-1.9-1.8-1.8c-2.4,0.1-4.8,0-7.2,0c-0.7,0-1.4,0-1.4-1c0-1,0.7-0.9,1.3-0.9c6.7,0,13.3,0,20,0c0.6,0,1.2-0.1,1.2,0.9
			c0,0.9-0.5,1-1.2,1c-2.5,0-5,0.1-7.5,0c-1.3-0.1-1.6,0.4-1.6,1.7C270.1,325.4,270,328.9,270,332.4z"/>
		<path class="st7" d="M217.5,365.5c0-2.7,0-4.9,0-7c0-0.4-0.3-1.2,0.5-1.2c0.6,0,0.4,0.7,0.4,1.1c0,3,0,6,0,9.5
			c-2.5-2.9-4.6-5.5-6.8-8c-0.1,0-0.2,0.1-0.4,0.1c0,2.1,0,4.2,0,6.3c0,0.5,0.3,1.3-0.4,1.3c-0.7,0-0.4-0.8-0.4-1.2
			c0-2.9,0-5.8,0-9.2C212.9,360,215,362.5,217.5,365.5z"/>
		<path class="st7" d="M180.9,367.6c-3.2,0-3.2,0-3.2-3.3c0-2,0-4,0-6c0-0.9,0.2-1.2,1.2-1.2c1.5,0.1,3.1,0,4.6,0
			c0.4,0,0.9-0.1,1,0.4c0,0.6-0.6,0.4-0.9,0.4c-1.2,0-2.5,0-3.7,0c-0.8,0-1.2,0.2-1.3,1.1c-0.2,2.8-0.2,2.8,2.8,2.9
			c0.6,0,1.6-0.5,1.7,0.4c0,0.6-1.1,0.2-1.6,0.3c-0.1,0-0.2,0-0.3,0c-2.7,0-2.7,0-2.5,2.8c0.1,0.9,0.4,1.2,1.2,1.2
			c1.3,0,2.6,0,3.9,0c0.3,0,0.8,0,0.8,0.4c0,0.5-0.4,0.4-0.8,0.4C182.7,367.6,181.8,367.6,180.9,367.6z"/>
		<path class="st7" d="M205.6,362.5c-1.2,0.6-2.3,0.3-3.4,0.3c-1.4-0.1-1.4,0.8-1.3,1.7c0.1,0.9-0.6,2.3,1.3,2.3c1.3,0,2.6,0,3.9,0
			c0.3,0,0.6,0,0.7,0.4c0.1,0.5-0.4,0.5-0.7,0.5c-1.7,0-3.4,0-5.1,0c-0.8,0-0.9-0.4-0.9-1.1c0-2.8,0-5.6,0-8.3
			c0-0.7,0.1-1.1,0.9-1.1c1.7,0,3.4,0,5.1,0c0.3,0,0.6,0,0.7,0.4c0.1,0.5-0.4,0.5-0.7,0.5c-1.3,0-2.6,0-3.9,0
			c-0.9,0-1.3,0.3-1.3,1.3c-0.1,2.7-0.1,2.7,2.6,2.7C204.7,362,204.7,362,205.6,362.5z"/>
		<path class="st7" d="M287.3,357c1.6,3.8,3.1,7.1,4.5,10.4c-0.1,0.1-0.3,0.3-0.4,0.4c-0.9-1.8-1.8-3.1-4.2-2.9
			c-2.1,0.1-3.6,0.6-4.4,2.8C283.9,364,285.6,360.7,287.3,357z M287.3,359c-0.3,0.7-0.6,1.1-0.8,1.5c-0.5,1.2-1.9,2.7-1.3,3.5
			c0.8,0.9,2.6,0.3,4.3,0.2C288.8,362.4,288.1,360.8,287.3,359z"/>
		<path class="st7" d="M265.1,357c1.6,3.7,3.1,7,4.6,10.4c-0.1,0.1-0.2,0.3-0.4,0.4c-1-1.8-2-2.9-4.3-2.9c-2.3,0-3.4,1-4.2,2.9
			c-0.1-0.1-0.3-0.3-0.4-0.4C261.9,364,263.4,360.7,265.1,357z M265.1,359c-0.7,1.6-1.3,2.9-2,4.2c-0.3,0.7-0.2,1.1,0.6,1
			c1.1,0,2.7,0.4,3.3-0.2c0.6-0.6-0.5-1.9-0.9-2.9C265.9,360.5,265.5,359.8,265.1,359z"/>
		<path class="st7" d="M240.1,362.5c0-0.7-0.1-1.5,0-2.2c0.2-1-0.7-2.4,0.6-3.1c1.7-0.8,5.1,0.1,6,1.3c1.3,1.8,0,4.3-2.4,4.6
			c-1.1,0.1-2.5-0.5-3.1,0.3c-0.5,0.7-0.2,2.1-0.2,3.1c0,0.4,0.1,0.9-0.5,0.9c-0.6,0-0.4-0.6-0.4-1
			C240,365.2,240.1,363.8,240.1,362.5z M240.9,360.1c0,2.3-0.5,2.2,2.8,2.2c1.7,0,2.7-0.9,2.7-2.2c-0.1-1.5-1.4-2.1-4.3-2.1
			C240.1,357.9,241,359.1,240.9,360.1z"/>
		<path class="st7" d="M192.2,367.8c-1.7-3.8-3.2-7.2-4.7-10.5c0.2-0.1,0.3-0.2,0.5-0.2c1.7,2.5,2.5,5.6,4.2,8.4
			c1.8-2.8,2.4-6,4.2-8.4c0.2,0.1,0.3,0.2,0.5,0.2C195.4,360.7,193.9,364.1,192.2,367.8z"/>
		<path class="st7" d="M273.2,367.4c1.6-3.1,3.1-6.1,4.8-9.4c-1.7,0-3,0-4.3,0c-0.3,0-0.8,0.1-0.8-0.4c-0.1-0.6,0.5-0.5,0.9-0.5
			c1.5,0,2.9,0,4.4,0c1,0,1.2,0.3,0.7,1.2c-1.5,2.7-2.9,5.5-4.4,8.4c1.8,0.5,3.6-0.1,5.2,0.7C277.6,367.4,275.5,367.4,273.2,367.4z"
			/>
		<path class="st7" d="M225.8,362.7c0-0.3,0-0.6,0-0.9c0-1.1,0.3-2.5-0.2-3.4c-0.6-1.1-2-0.3-3.1-0.5c-0.3-0.1-0.8,0-0.7-0.5
			c0-0.5,0.5-0.4,0.8-0.4c2.4,0,4.8,0,7.2,0c0.4,0,0.9-0.1,0.9,0.5c0,0.4-0.5,0.4-0.8,0.4c-0.1,0-0.1,0-0.2,0c-3,0.2-3,0.2-3,3.2
			c0,1.7,0,3.4,0,5.1c0,0.4,0.2,1.1-0.4,1.1c-0.8,0-0.5-0.8-0.5-1.2C225.8,365.1,225.8,363.9,225.8,362.7z"/>
		<path class="st7" d="M257.2,367.6c-2,0-4,0-6,0c-0.4,0-0.6-0.3-0.6-0.7c0-3.2,0-6.4,0-9.8c1,0.4,0.8,1,0.8,1.5c0,2.3,0.1,4.6,0,7
			c0,1.1,0.4,1.4,1.4,1.3c1.5-0.1,2.9,0,4.4,0C257.2,367.1,257.2,367.4,257.2,367.6z"/>
		<path class="st5" d="M337.7,331.5c0,6.4-5,11.4-11.4,11.3c-6.2,0-11.2-5.2-11.2-11.4c0-6.3,5.2-11.4,11.4-11.3
			C332.8,320.1,337.7,325.1,337.7,331.5z"/>
		<path class="st5" d="M188.6,322.6c1.9,4.3,3.7,8.4,5.5,12.4c0.3,0.7,0.1,1.1-0.7,1.1c-3.3,0-6.6,0-9.9,0c-0.7,0-1.1-0.2-0.7-1
			C184.7,331,186.6,327,188.6,322.6z"/>
		<path class="st5" d="M287.3,359c0.8,1.9,1.5,3.4,2.3,5.2c-1.7,0-3.5,0.7-4.3-0.2c-0.6-0.7,0.8-2.3,1.3-3.5
			C286.7,360,287,359.7,287.3,359z"/>
		<path class="st5" d="M265.1,359c0.4,0.9,0.8,1.5,1,2.2c0.4,1,1.5,2.2,0.9,2.9c-0.6,0.6-2.1,0.2-3.3,0.2c-0.9,0-1-0.3-0.6-1
			C263.8,361.9,264.4,360.5,265.1,359z"/>
		<path class="st5" d="M240.9,360.1c0.1-0.9-0.8-2.2,1.2-2.1c2.9,0.1,4.3,0.6,4.3,2.1c0,1.3-1,2.1-2.7,2.2
			C240.4,362.3,240.9,362.4,240.9,360.1z"/>
	</g>
	<path class="st8" d="M336.4,315.6c-0.1-0.3-0.1-0.5-0.2-0.7c-1.1-4.5-6.7-6.7-10.7-4.3c-3.5,2.1-6.1,5-7.9,8.3
		c-0.9-1-2-1.8-3.5-2.5c-3.6-1.7-6.8-1.5-9.3-0.1c-2.2-0.8-4.4-1.3-6.5-1.6c-3.2-0.4-6.4-0.3-9.4,0.3c-2.8-2.1-7.1-2-9.8,0.5
		c-0.4,0.4-0.9,0.8-1.3,1.3c-3.8-1.8-8-2.6-12-2.5c-0.3,0-0.5,0-0.8,0.1c-1.8-2.1-4.7-3.2-7.5-2.4c-0.1,0-0.3,0.1-0.4,0.1
		c-0.4-0.5-0.8-1-1.3-1.4c-8.1-8.1-22.3-3.2-31,3.6c-6.7-1.8-13.5-2.3-20.3-1.4c-0.9-0.3-2-0.5-3.2-0.3c-0.6,0.1-1.3,0.2-1.9,0.3
		c0,0,0,0,0,0c0,0,0,0,0,0c-3.3,0.5-6.6,1.1-9.7,2c-8.3-0.9-16.7-1.7-25-2.4c-4-0.3-10-1-15.9-1c-1.4-0.4-2.8-0.4-4.1,0.2
		c-9.4,0.8-17.2,4.5-14.3,16.2c0.7,2.9,3.3,4.8,6.2,5.2c0.2,0.4,0.5,0.9,0.8,1.2c-4.6,4.9-0.5,14.1,7,12c5.1-1.4,10.1-2.8,15.1-4.3
		c-2,1.8-2.6,4.5-2.1,7c-12.3,1.4-24.5,3.2-36.7,5.3c-8.3,1.5-6,14.1,1.9,14.3c19.1,0.4,38.3,0.5,57.4,0.3c1,0.5,2.1,0.9,3.4,0.9
		c7.1,0,14.3-0.4,21.4-1.2c9-0.2,17.9-0.4,26.9-0.8c11.6,0.9,23.3,1.1,34.9,0.7c0,0,0.1,0,0.1,0c2.5,0.6,4.9,1,7.4,1.3
		c1.7,3.7,6.6,5.5,10.3,3.3c1.5-0.9,3-1.8,4.5-2.7c6.4-0.3,13-1.5,17.3-5.6c1.7-0.4,3.5-0.8,5.2-1.3c5.6-1.5,7-10,2.5-13
		c0.9-0.4,1.8-0.9,2.6-1.6c2.6-0.1,5.1-0.3,7.7-0.6c2.2,1.5,5,2,8.7,0.4c0.5-0.2,1-0.5,1.4-0.7c4.9-0.9,9.4-4.6,11.1-9.5
		C348.1,330.2,345.8,317.9,336.4,315.6z"/>
</g>
</svg>
